<?xml version="1.0" encoding="UTF-8"?>
<svg width="24px" height="24px" viewBox="0 0 24 24" version="1.1" xmlns="http://www.w3.org/2000/svg" xmlns:xlink="http://www.w3.org/1999/xlink">
    <title>icon/插件设置/关于/normal/light</title>
    <g id="icon/插件设置/关于/normal/light" stroke="none" stroke-width="1" fill="none" fill-rule="evenodd">
        <g id="icon/插件设置/关于/normal">
            <polygon id="Stroke-1" stroke-opacity="0.00784313771" stroke="#000000" stroke-width="1.33333335e-11" points="0 0 23.9999985 0 23.9999985 23.9999985 0 23.9999985"></polygon>
            <path d="M12,4 C16.418278,4 20,7.581722 20,12 C20,16.418278 16.418278,20 12,20 C7.581722,20 4,16.418278 4,12 C4,7.581722 7.581722,4 12,4 Z M12,15.25 C11.5857864,15.25 11.25,15.5857864 11.25,16 C11.25,16.4142136 11.5857864,16.75 12,16.75 C12.4142136,16.75 12.75,16.4142136 12.75,16 C12.75,15.5857864 12.4142136,15.25 12,15.25 Z M12,7.25 C11.5857864,7.25 11.25,7.58578644 11.25,8 L11.25,8 L11.25,13.5 C11.25,13.9142136 11.5857864,14.25 12,14.25 C12.4142136,14.25 12.75,13.9142136 12.75,13.5 L12.75,13.5 L12.75,8 C12.75,7.58578644 12.4142136,7.25 12,7.25 Z" id="形状结合" fill="#626E88"></path>
        </g>
    </g>
</svg>