<?xml version="1.0" encoding="UTF-8"?>
<svg width="16px" height="16px" viewBox="0 0 16 16" version="1.1" xmlns="http://www.w3.org/2000/svg" xmlns:xlink="http://www.w3.org/1999/xlink">
    <title>icon/日历/light</title>
    <g id="控件" stroke="none" stroke-width="1" fill="none" fill-rule="evenodd">
        <g id="日期选择框/未选择/light" transform="translate(-200.000000, -4.000000)">
            <g id="icon/日历/light" transform="translate(200.000000, 4.000000)">
                <g id="Icon/Calendar" fill="#000000" fill-rule="nonzero" opacity="0">
                    <rect id="矩形" x="0" y="0" width="16" height="16"></rect>
                </g>
                <g id="编组" transform="translate(1.000000, 1.000000)" fill="#616E88">
                    <path d="M11.3998885,0.00116657852 C11.7312219,0.00116657852 12.000333,0.269477542 12.000333,0.600783253 L12.000333,1.61103236 C13.1326915,1.71472493 13.9995129,2.66406982 14,3.80107198 L14,11.7990718 C14.0002059,12.3827226 13.7684768,12.9425392 13.3558119,13.3553155 C12.943147,13.7680919 12.3833658,14 11.7996663,14 L2.20111105,14 C1.61741164,14.0002058 1.05754843,13.768496 0.644737657,13.3558655 C0.231926889,12.943235 0,12.3835004 0,11.7998496 L0,3.80107198 C0,2.66377159 0.867011234,1.7139745 1.99966661,1.61025464 L1.99966661,0.600005534 C1.99966661,0.268631628 2.26832062,0 2.59972215,0 C2.93112367,0 3.19977769,0.268631628 3.19977769,0.600005534 L3.19977769,1.60014438 L6.39955536,1.60014438 L6.39955536,0.600783253 C6.39955536,0.297475208 6.6251109,0.046273935 6.91833313,0.00661057516 L7,0.00116657852 C7.33133312,0.00116657852 7.59966644,0.269477542 7.59966644,0.600783253 L7.59966644,1.60092208 L10.7994441,1.60092208 L10.7994441,0.600783253 C10.7994441,0.297475208 11.0249997,0.046273935 11.3182219,0.00661057516 L11.3998885,0.00116657852 Z M12.7998885,6.40018862 L1.1993333,6.40018862 L1.1993333,11.7998496 C1.1993333,12.3520257 1.64733328,12.7999884 2.20033327,12.7999884 L11.7988885,12.7999884 C12.3511107,12.7999884 12.7991107,12.3528034 12.7991107,11.7998496 L12.7991107,6.40018862 L12.7998885,6.40018862 Z M6.98988868,2.80093315 L2.60944437,2.80015543 L2.60011104,2.80093315 L2.20033327,2.80093315 C1.64811107,2.80093315 1.20011108,3.2488958 1.20011108,3.80107198 L1.1993333,5.20017757 L12.7998885,5.20017757 L12.7998885,3.80029428 C12.7998885,3.2481181 12.3526663,2.80093315 11.7996663,2.80093315 L11.4099997,2.80015543 L11.3998885,2.80093315 L11.3897774,2.80093315 L7.01011091,2.80015543 L6.99999979,2.80093315 L6.98988868,2.80093315 Z" id="形状"></path>
                </g>
            </g>
        </g>
    </g>
</svg>