<svg xmlns="http://www.w3.org/2000/svg" width="176" height="177" viewBox="0 0 176 177" fill="none">
  <g clip-path="url(#clip0_573_5299)">
  <path opacity="0.2" d="M102.029 4.31515C93.1694 -0.0131205 82.8213 0.00440633 73.9884 4.30964L29.8514 25.8558C18.9083 31.1978 11.938 42.3032 11.938 54.5181V153.518C11.938 194.387 41.872 228.133 76.4339 241.664L76.4589 241.674C83.88 244.568 92.126 244.568 99.5471 241.674L99.5721 241.664C134.134 228.133 164.068 194.387 164.068 153.518V54.5181C164.068 42.3032 157.098 31.1978 146.155 25.8558L102.029 4.31515Z" fill="url(#paint0_linear_573_5299)"/>
  <path d="M137.175 44.4971L92.9854 22.8553C89.8473 21.315 86.1649 21.315 83.015 22.8553L38.8254 44.4971C34.9394 46.4003 32.48 50.3439 32.48 54.6726V85.6386C32.48 116.299 55.3567 143.674 83.9445 154.903C86.5499 155.923 89.4505 155.923 92.0559 154.903C120.644 143.674 143.52 116.299 143.52 85.6386V54.6726C143.52 50.3439 141.061 46.4003 137.175 44.4971Z" fill="url(#paint1_linear_573_5299)"/>
  </g>
  <defs>
    <linearGradient id="paint0_linear_573_5299" x1="88.003" y1="21.6998" x2="88.003" y2="201.549" gradientUnits="userSpaceOnUse">
      <stop stop-color="#3A68B9"/>
      <stop offset="0.8" stop-color="#4176D2" stop-opacity="0"/>
    </linearGradient>
    <linearGradient id="paint1_linear_573_5299" x1="67.0464" y1="21.7001" x2="67.0464" y2="155.449" gradientUnits="userSpaceOnUse">
      <stop stop-color="#C3D1E9"/>
      <stop offset="1" stop-color="#627393"/>
    </linearGradient>
    <clipPath id="clip0_573_5299">
      <rect width="176" height="176" fill="white" transform="translate(0 0.580078)"/>
    </clipPath>
  </defs>
</svg>
