<?xml version="1.0" encoding="UTF-8"?>
<svg width="22px" height="22px" viewBox="0 0 22 22" version="1.1" xmlns="http://www.w3.org/2000/svg" xmlns:xlink="http://www.w3.org/1999/xlink">
    <title>icon/设置/normal/dark</title>
    <g id="icon/设置/normal/dark" stroke="none" stroke-width="1" fill="none" fill-rule="evenodd">
        <g id="icon/设置/normal" fill="#C5CFE0" fill-rule="nonzero">
            <path d="M18.4129464,11 C18.4129464,9.94732143 19.0738839,9.05535714 20,8.69977679 C19.7790179,7.83191964 19.4375,7.01428571 18.9915179,6.26294643 C18.0834821,6.66674107 16.9866071,6.50200893 16.2433036,5.75669643 C15.5,5.01339286 15.3352679,3.91450893 15.7390625,3.00848214 C14.9857143,2.5625 14.1680804,2.22098214 13.3002232,2 C12.9426339,2.92611607 12.0506696,3.58705357 11,3.58705357 C9.94732143,3.58705357 9.05535714,2.92611607 8.69977679,2 C7.83191964,2.22098214 7.01428571,2.5625 6.26294643,3.00848214 C6.66674107,3.91651786 6.50200893,5.01339286 5.75870536,5.75669643 C5.01540179,6.5 3.91651786,6.66473214 3.01049107,6.26294643 C2.5625,7.01428571 2.22098214,7.83191964 2,8.69977679 C2.92611607,9.05736607 3.58705357,9.94933036 3.58705357,11 C3.58705357,12.0526786 2.92611607,12.9446429 2,13.3002232 C2.22098214,14.1680804 2.5625,14.9857143 3.00848214,15.7370536 C3.91651786,15.3332589 5.01339286,15.4979911 5.75669643,16.2433036 C6.5,16.9866071 6.66473214,18.0854911 6.2609375,18.9915179 C7.01428571,19.4375 7.83191964,19.7790179 8.69977679,20 C9.05736607,19.0738839 9.94933036,18.4129464 11,18.4129464 C12.0526786,18.4129464 12.9446429,19.0738839 13.3002232,20 C14.1680804,19.7790179 14.9857143,19.4375 15.7370536,18.9915179 C15.3332589,18.0834821 15.4979911,16.9866071 16.2412946,16.2433036 C16.9845982,15.5 18.0834821,15.3352679 18.9895089,15.7370536 C19.4375,14.9857143 19.7790179,14.1680804 20,13.3002232 C19.0738839,12.9446429 18.4129464,12.0526786 18.4129464,11 Z M11,13.4709821 C9.6359375,13.4709821 8.52901786,12.3640625 8.52901786,11 C8.52901786,9.6359375 9.6359375,8.52901786 11,8.52901786 C12.3640625,8.52901786 13.4709821,9.6359375 13.4709821,11 C13.4709821,12.3640625 12.3640625,13.4709821 11,13.4709821 Z" id="形状"></path>
        </g>
    </g>
</svg>