<?xml version="1.0" encoding="UTF-8"?>
<svg width="24px" height="24px" viewBox="0 0 24 24" version="1.1" xmlns="http://www.w3.org/2000/svg" xmlns:xlink="http://www.w3.org/1999/xlink">
    <title>icon/插件设置/设置/normal/light</title>
    <g id="icon/插件设置/设置/normal/light" stroke="none" stroke-width="1" fill="none" fill-rule="evenodd">
        <g id="icon/插件设置/统计/checked">
            <polygon id="Stroke-1" stroke-opacity="0.00784313771" stroke="#000000" stroke-width="1.33333335e-11" points="0 0 23.9999985 0 23.9999985 23.9999985 0 23.9999985"></polygon>
            <path d="M19.8349897,10.3406688 C19.7469842,9.85644057 19.4739671,9.54499865 19.1399462,9.5535313 L19.071942,9.5535313 C17.9275971,9.55707353 16.996773,8.57149459 16.991812,7.35103963 C16.991812,6.95000483 17.1718232,6.51377282 17.1718232,6.50950649 C17.3467802,6.07882401 17.2154363,5.57631361 16.8568036,5.30426892 L16.8368023,5.29146994 L14.8356772,4.11396349 L14.815676,4.10543084 C14.4271582,3.93810291 13.982593,4.03234363 13.6836052,4.34541177 C13.4385899,4.61205725 12.6685418,5.30640208 12.0465029,5.30640208 C11.4194637,5.30640208 10.6444153,4.59925827 10.3994,4.32834646 C10.1025805,4.01154451 9.65733206,3.91380302 9.26732921,4.07983287 L9.24232765,4.08836553 L7.1711982,5.2936031 L7.15119695,5.30853525 C6.79073297,5.57805875 6.65711492,6.08039129 6.83117695,6.51163966 C6.83317707,6.5148394 7.01218826,6.95640432 7.01218826,7.35530596 C7.00722724,8.57576092 6.07640314,9.56133986 4.93205825,9.55779763 L4.86205388,9.55779763 C4.52903306,9.54819839 4.25501594,9.86070689 4.1680105,10.3449351 C4.16001,10.3843986 4,11.2931264 4,12.0066697 C4,12.7212796 4.16001,13.6300074 4.1680105,13.6673378 C4.25401588,14.1462331 4.5200325,14.4566084 4.85005313,14.4566084 L4.93205825,14.4566084 C6.07912995,14.4566084 7.01218826,15.4442633 7.01218826,16.6580335 C7.01218826,17.0590683 6.83217701,17.4963669 6.83217701,17.5006332 C6.65742505,17.9315612 6.78920156,18.4341311 7.14819676,18.7058708 L7.16819801,18.7186698 L9.13032065,19.8823106 L9.1503219,19.8919099 C9.54226626,20.0639094 9.99290299,19.9642397 10.288393,19.6401965 C10.5184074,19.3756842 11.3184574,18.6184111 11.9604975,18.6184111 C12.6065379,18.6184111 13.3945872,19.3692847 13.6436027,19.659395 C13.9359692,19.9856789 14.3853519,20.088803 14.7776736,19.919641 L14.799675,19.9111084 L16.8298019,18.7133369 L16.8498031,18.6984047 C17.2096985,18.4278969 17.3424318,17.9253068 17.167823,17.4942337 C17.1668229,17.491034 16.9878117,17.0494691 16.9878117,16.651634 C16.9878117,15.4357306 17.9208701,14.4480757 19.0679417,14.4480757 L19.1379461,14.4480757 C19.4709669,14.4555418 19.7449841,14.1451665 19.8319895,13.6609383 C19.8389899,13.6236079 20,12.7148801 20,12.0002702 C20,11.2867269 19.83999,10.3790657 19.8339896,10.3406688 L19.8349897,10.3406688 Z M12,14.2512787 C10.7592927,14.2512787 9.75,13.2409045 9.75,11.9998212 C9.75,10.7595562 10.7592927,9.75 11.999188,9.75 C13.2398953,9.75 14.25,10.7595562 14.25,11.9998212 C14.25,13.2409045 13.2398953,14.2512787 12,14.2512787 Z" id="形状" fill="#626E88" fill-rule="nonzero"></path>
        </g>
    </g>
</svg>